<mxfile host="65bd71144e">
    <diagram id="SfA_BOd4fbeziseqdOy3" name="Page-1">
        <mxGraphModel dx="1790" dy="1524" grid="1" gridSize="10" guides="1" tooltips="1" connect="1" arrows="1" fold="1" page="1" pageScale="1" pageWidth="2339" pageHeight="3300" background="#ffffff" math="0" shadow="0">
            <root>
                <mxCell id="0"/>
                <mxCell id="1" parent="0"/>
                <mxCell id="49" value="&lt;b&gt;&lt;font color=&quot;#000000&quot;&gt;GFT AWS&lt;/font&gt;&lt;/b&gt;" style="sketch=0;outlineConnect=0;gradientColor=none;html=1;whiteSpace=wrap;fontSize=12;fontStyle=0;shape=mxgraph.aws4.group;grIcon=mxgraph.aws4.group_aws_cloud;strokeColor=#AAB7B8;fillColor=none;verticalAlign=top;align=left;spacingLeft=30;fontColor=#AAB7B8;dashed=0;" parent="1" vertex="1">
                    <mxGeometry x="920" y="167" width="590" height="670" as="geometry"/>
                </mxCell>
                <mxCell id="174" value="&lt;font color=&quot;#000000&quot;&gt;eu-west-2&lt;/font&gt;" style="shape=mxgraph.ibm.box;prType=region;fontStyle=0;verticalAlign=top;align=left;spacingLeft=32;spacingTop=4;fillColor=none;rounded=0;whiteSpace=wrap;html=1;strokeColor=#919191;strokeWidth=2;dashed=0;container=1;spacing=-4;collapsible=0;expand=0;recursiveResize=0;glass=1;labelBackgroundColor=none;fontFamily=Times New Roman;fontSize=14;fontColor=#0000FF;" parent="1" vertex="1">
                    <mxGeometry x="945" y="220" width="525" height="580" as="geometry"/>
                </mxCell>
                <mxCell id="175" value="Lambda" style="text;html=1;strokeColor=none;fillColor=none;align=center;verticalAlign=middle;whiteSpace=wrap;rounded=0;labelBackgroundColor=none;fontFamily=Times New Roman;fontSize=14;fontColor=#000000;" parent="174" vertex="1">
                    <mxGeometry x="50" y="385" width="100" height="30" as="geometry"/>
                </mxCell>
                <mxCell id="178" value="" style="outlineConnect=0;dashed=0;verticalLabelPosition=bottom;verticalAlign=top;align=center;html=1;shape=mxgraph.aws3.sqs;fillColor=#D9A741;gradientColor=none;glass=1;labelBackgroundColor=none;fontFamily=Times New Roman;fontSize=14;fontColor=#000000;strokeColor=default;strokeWidth=0;" parent="174" vertex="1">
                    <mxGeometry x="61.75" y="457" width="76.5" height="93" as="geometry"/>
                </mxCell>
                <mxCell id="179" value="&lt;font style=&quot;font-size: 14px ; font-weight: normal&quot;&gt;&lt;font face=&quot;Times New Roman&quot;&gt;SQS&lt;/font&gt;&lt;br&gt;&lt;/font&gt;" style="text;strokeColor=none;fillColor=none;html=1;fontSize=24;fontStyle=1;verticalAlign=middle;align=center;labelBackgroundColor=none;fontFamily=Helvetica;fontColor=#000000;strokeWidth=0;" parent="174" vertex="1">
                    <mxGeometry x="115" y="500" width="90" height="34.5" as="geometry"/>
                </mxCell>
                <mxCell id="197" value="" style="rounded=0;whiteSpace=wrap;html=1;labelBackgroundColor=none;fontColor=#0000FF;fillColor=none;dashed=1;strokeColor=#0000FF;strokeWidth=1;" parent="1" vertex="1">
                    <mxGeometry x="650" y="844.25" width="530" height="208.75" as="geometry"/>
                </mxCell>
                <mxCell id="12" value="Region" style="shape=mxgraph.ibm.box;prType=region;fontStyle=0;verticalAlign=top;align=left;spacingLeft=32;spacingTop=4;fillColor=none;rounded=0;whiteSpace=wrap;html=1;strokeColor=#919191;strokeWidth=2;dashed=0;container=1;spacing=-4;collapsible=0;expand=0;recursiveResize=0;" parent="1" vertex="1">
                    <mxGeometry x="370" y="217" width="490" height="580" as="geometry"/>
                </mxCell>
                <mxCell id="3" value="&lt;font color=&quot;#000000&quot;&gt;&lt;b&gt;Client AWS&lt;/b&gt;&lt;/font&gt;" style="sketch=0;outlineConnect=0;gradientColor=none;html=1;whiteSpace=wrap;fontSize=12;fontStyle=0;shape=mxgraph.aws4.group;grIcon=mxgraph.aws4.group_aws_cloud;strokeColor=#AAB7B8;fillColor=none;verticalAlign=top;align=left;spacingLeft=30;fontColor=#AAB7B8;dashed=0;" parent="12" vertex="1">
                    <mxGeometry x="-50" y="-50" width="580" height="670" as="geometry"/>
                </mxCell>
                <mxCell id="60" value="" style="outlineConnect=0;dashed=0;verticalLabelPosition=bottom;verticalAlign=top;align=center;html=1;shape=mxgraph.aws3.sqs;fillColor=#D9A741;gradientColor=none;glass=1;labelBackgroundColor=none;fontFamily=Times New Roman;fontSize=14;fontColor=#000000;strokeColor=default;strokeWidth=0;" parent="12" vertex="1">
                    <mxGeometry x="333.5" y="295" width="76.5" height="93" as="geometry"/>
                </mxCell>
                <mxCell id="16" value="" style="sketch=0;outlineConnect=0;fontColor=rgb(240, 240, 240);gradientColor=none;fillColor=#759C3E;strokeColor=rgb(240, 240, 240);dashed=0;verticalLabelPosition=bottom;verticalAlign=top;align=center;html=1;fontSize=12;fontStyle=0;aspect=fixed;pointerEvents=1;shape=mxgraph.aws4.event_time_based;fontFamily=Verdana;" parent="12" vertex="1">
                    <mxGeometry x="184.63" y="70" width="53.23" height="60" as="geometry"/>
                </mxCell>
                <mxCell id="20" value="&lt;font style=&quot;font-size: 14px ; font-weight: normal&quot;&gt;&lt;font face=&quot;Times New Roman&quot;&gt;Amazon Cloudwatch&lt;/font&gt;&lt;br&gt;&lt;/font&gt;" style="text;strokeColor=none;fillColor=none;html=1;fontSize=24;fontStyle=1;verticalAlign=middle;align=center;labelBackgroundColor=none;fontFamily=Helvetica;fontColor=#000000;strokeWidth=0;" parent="12" vertex="1">
                    <mxGeometry x="20.75" y="163.5" width="96.5" height="54.5" as="geometry"/>
                </mxCell>
                <mxCell id="31" value="" style="endArrow=classic;html=1;fontFamily=Times New Roman;fontSize=14;fontColor=#000000;strokeColor=#000000;shadow=1;" parent="12" edge="1">
                    <mxGeometry width="50" height="50" relative="1" as="geometry">
                        <mxPoint x="122.5" y="139.5" as="sourcePoint"/>
                        <mxPoint x="329" y="139.5" as="targetPoint"/>
                    </mxGeometry>
                </mxCell>
                <mxCell id="32" value="Execute every quarter" style="text;html=1;strokeColor=none;fillColor=none;align=center;verticalAlign=middle;whiteSpace=wrap;rounded=0;labelBackgroundColor=#FFFFFF;fontFamily=Times New Roman;fontSize=14;fontColor=#000000;" parent="12" vertex="1">
                    <mxGeometry x="161.25" y="27" width="100" height="30" as="geometry"/>
                </mxCell>
                <mxCell id="47" value="" style="edgeStyle=none;html=1;shadow=1;fontFamily=Times New Roman;fontSize=14;fontColor=#000000;strokeColor=#000000;exitX=0.5;exitY=1;exitDx=0;exitDy=0;" parent="12" source="33" edge="1">
                    <mxGeometry relative="1" as="geometry">
                        <mxPoint x="369" y="240" as="sourcePoint"/>
                        <mxPoint x="369" y="293" as="targetPoint"/>
                    </mxGeometry>
                </mxCell>
                <mxCell id="33" value="Lambda" style="text;html=1;strokeColor=none;fillColor=none;align=center;verticalAlign=middle;whiteSpace=wrap;rounded=0;labelBackgroundColor=#FFFFFF;fontFamily=Times New Roman;fontSize=14;fontColor=#000000;" parent="12" vertex="1">
                    <mxGeometry x="329" y="179.5" width="81" height="30" as="geometry"/>
                </mxCell>
                <mxCell id="58" value="" style="outlineConnect=0;dashed=0;verticalLabelPosition=bottom;verticalAlign=top;align=center;html=1;shape=mxgraph.aws3.lambda;fillColor=#F58534;gradientColor=none;glass=1;labelBackgroundColor=none;fontFamily=Times New Roman;fontSize=14;fontColor=#000000;strokeColor=default;strokeWidth=0;" parent="12" vertex="1">
                    <mxGeometry x="333.5" y="93" width="76.5" height="93" as="geometry"/>
                </mxCell>
                <mxCell id="62" value="" style="outlineConnect=0;dashed=0;verticalLabelPosition=bottom;verticalAlign=top;align=center;html=1;shape=mxgraph.aws3.sqs;fillColor=#D9A741;gradientColor=none;glass=1;labelBackgroundColor=none;fontFamily=Times New Roman;fontSize=14;fontColor=#000000;strokeColor=default;strokeWidth=0;" parent="12" vertex="1">
                    <mxGeometry x="237.86" y="460" width="76.5" height="93" as="geometry"/>
                </mxCell>
                <mxCell id="63" value="&lt;font style=&quot;font-size: 14px ; font-weight: normal&quot;&gt;&lt;font face=&quot;Times New Roman&quot;&gt;SQS&lt;/font&gt;&lt;br&gt;&lt;/font&gt;" style="text;strokeColor=none;fillColor=none;html=1;fontSize=24;fontStyle=1;verticalAlign=middle;align=center;labelBackgroundColor=none;fontFamily=Helvetica;fontColor=#000000;strokeWidth=0;" parent="12" vertex="1">
                    <mxGeometry x="224.36" y="540" width="90" height="34.5" as="geometry"/>
                </mxCell>
                <mxCell id="68" value="" style="curved=1;endArrow=classic;html=1;shadow=1;fontFamily=Times New Roman;fontSize=14;fontColor=#000000;strokeColor=#000000;" parent="12" target="62" edge="1">
                    <mxGeometry width="50" height="50" relative="1" as="geometry">
                        <mxPoint x="320" y="360" as="sourcePoint"/>
                        <mxPoint x="320" y="370" as="targetPoint"/>
                        <Array as="points">
                            <mxPoint x="290" y="360"/>
                            <mxPoint x="270" y="370"/>
                        </Array>
                    </mxGeometry>
                </mxCell>
                <mxCell id="69" value="Dead-Letter&lt;br&gt;Queue" style="text;html=1;strokeColor=none;fillColor=none;align=center;verticalAlign=middle;whiteSpace=wrap;rounded=0;labelBackgroundColor=#FFFFFF;fontFamily=Times New Roman;fontSize=14;fontColor=#000000;" parent="12" vertex="1">
                    <mxGeometry x="184.63" y="390" width="100" height="30" as="geometry"/>
                </mxCell>
                <mxCell id="84" value="" style="outlineConnect=0;dashed=0;verticalLabelPosition=bottom;verticalAlign=top;align=center;html=1;shape=mxgraph.aws3.cloudwatch;fillColor=#759C3E;gradientColor=none;glass=1;labelBackgroundColor=default;fontFamily=Times New Roman;fontSize=14;fontColor=#000000;strokeColor=#000000;strokeWidth=2;" parent="12" vertex="1">
                    <mxGeometry x="26" y="93" width="82.5" height="93" as="geometry"/>
                </mxCell>
                <mxCell id="103" value="&lt;font style=&quot;font-size: 14px ; font-weight: normal&quot;&gt;&lt;font face=&quot;Times New Roman&quot;&gt;SQS&lt;/font&gt;&lt;br&gt;&lt;/font&gt;" style="text;strokeColor=none;fillColor=none;html=1;fontSize=24;fontStyle=1;verticalAlign=middle;align=center;labelBackgroundColor=#FFFFFF;fontFamily=Helvetica;fontColor=#000000;strokeWidth=0;" parent="12" vertex="1">
                    <mxGeometry x="326.75" y="388" width="90" height="34.5" as="geometry"/>
                </mxCell>
                <mxCell id="140" value="Generate cost report" style="text;html=1;strokeColor=none;fillColor=none;align=center;verticalAlign=middle;whiteSpace=wrap;rounded=0;labelBackgroundColor=none;fontFamily=Times New Roman;fontSize=14;fontColor=#000000;" parent="12" vertex="1">
                    <mxGeometry x="370" y="70" width="100" height="30" as="geometry"/>
                </mxCell>
                <mxCell id="56" style="edgeStyle=none;html=1;shadow=1;fontFamily=Times New Roman;fontSize=14;fontColor=#000000;strokeColor=#000000;startArrow=none;" parent="1" source="60" target="59" edge="1">
                    <mxGeometry relative="1" as="geometry">
                        <mxPoint x="747" y="534" as="sourcePoint"/>
                        <mxPoint x="990" y="534" as="targetPoint"/>
                    </mxGeometry>
                </mxCell>
                <mxCell id="176" value="" style="edgeStyle=none;html=1;strokeColor=#000000;" parent="1" source="59" target="104" edge="1">
                    <mxGeometry relative="1" as="geometry"/>
                </mxCell>
                <mxCell id="59" value="`" style="outlineConnect=0;dashed=0;verticalLabelPosition=bottom;verticalAlign=top;align=center;html=1;shape=mxgraph.aws3.lambda;fillColor=#F58534;gradientColor=none;glass=1;labelBackgroundColor=none;fontFamily=Times New Roman;fontSize=14;fontColor=#000000;strokeColor=default;strokeWidth=0;" parent="1" vertex="1">
                    <mxGeometry x="1000" y="505" width="90" height="100" as="geometry"/>
                </mxCell>
                <mxCell id="75" value="Amazon RDS" style="text;html=1;strokeColor=none;fillColor=none;align=center;verticalAlign=middle;whiteSpace=wrap;rounded=0;labelBackgroundColor=#FFFFFF;fontFamily=Times New Roman;fontSize=14;fontColor=#000000;" parent="1" vertex="1">
                    <mxGeometry x="1280" y="595" width="81" height="30" as="geometry"/>
                </mxCell>
                <mxCell id="79" value="" style="sketch=0;points=[[0,0,0],[0.25,0,0],[0.5,0,0],[0.75,0,0],[1,0,0],[0,1,0],[0.25,1,0],[0.5,1,0],[0.75,1,0],[1,1,0],[0,0.25,0],[0,0.5,0],[0,0.75,0],[1,0.25,0],[1,0.5,0],[1,0.75,0]];outlineConnect=0;fontColor=#232F3E;gradientColor=#4D72F3;gradientDirection=north;fillColor=#3334B9;strokeColor=#ffffff;dashed=0;verticalLabelPosition=bottom;verticalAlign=top;align=center;html=1;fontSize=12;fontStyle=0;aspect=fixed;shape=mxgraph.aws4.resourceIcon;resIcon=mxgraph.aws4.rds;glass=1;labelBackgroundColor=none;fontFamily=Times New Roman;" parent="1" vertex="1">
                    <mxGeometry x="1280" y="515" width="78" height="78" as="geometry"/>
                </mxCell>
                <mxCell id="81" value="Store Client report" style="text;html=1;strokeColor=none;fillColor=none;align=center;verticalAlign=middle;whiteSpace=wrap;rounded=0;labelBackgroundColor=#FFFFFF;fontFamily=Times New Roman;fontSize=14;fontColor=#000000;" parent="1" vertex="1">
                    <mxGeometry x="1120" y="515" width="130" height="30" as="geometry"/>
                </mxCell>
                <mxCell id="100" value="" style="edgeStyle=none;html=1;shadow=1;fontFamily=Times New Roman;fontSize=14;fontColor=#000000;strokeColor=#000000;" parent="1" source="83" edge="1">
                    <mxGeometry relative="1" as="geometry">
                        <mxPoint x="1310" y="510" as="targetPoint"/>
                    </mxGeometry>
                </mxCell>
                <mxCell id="83" value="" style="shape=actor;whiteSpace=wrap;html=1;glass=1;labelBackgroundColor=default;fontFamily=Times New Roman;fontSize=14;strokeWidth=2;fillColor=none;strokeColor=#000000;" parent="1" vertex="1">
                    <mxGeometry x="1290" y="50" width="40" height="60" as="geometry"/>
                </mxCell>
                <mxCell id="98" style="edgeStyle=none;html=1;shadow=1;fontFamily=Times New Roman;fontSize=14;fontColor=#000000;strokeColor=#000000;startArrow=none;" parent="1" edge="1">
                    <mxGeometry relative="1" as="geometry">
                        <mxPoint x="1090" y="554" as="sourcePoint"/>
                        <mxPoint x="1280" y="553.7293734542457" as="targetPoint"/>
                    </mxGeometry>
                </mxCell>
                <mxCell id="57" value="&lt;font style=&quot;font-size: 14px&quot;&gt;&lt;font face=&quot;Times New Roman&quot;&gt;Cross-account message publish&lt;/font&gt;&lt;br&gt;&lt;/font&gt;" style="text;strokeColor=none;fillColor=none;html=1;fontSize=24;fontStyle=1;verticalAlign=middle;align=center;labelBackgroundColor=none;fontFamily=Helvetica;fontColor=#0000FF;strokeWidth=0;glass=1;" parent="1" vertex="1">
                    <mxGeometry x="840" y="503.5" width="96.5" height="54.5" as="geometry"/>
                </mxCell>
                <mxCell id="101" value="&lt;font style=&quot;font-size: 14px&quot;&gt;&lt;font face=&quot;Times New Roman&quot;&gt;Retreive Report&lt;/font&gt;&lt;br&gt;&lt;/font&gt;" style="text;strokeColor=none;fillColor=none;html=1;fontSize=24;fontStyle=1;verticalAlign=middle;align=center;labelBackgroundColor=none;fontFamily=Helvetica;fontColor=#000000;strokeWidth=0;glass=1;" parent="1" vertex="1">
                    <mxGeometry x="1320" y="417" width="96.5" height="54.5" as="geometry"/>
                </mxCell>
                <mxCell id="169" value="" style="edgeStyle=orthogonalEdgeStyle;curved=1;html=1;shadow=1;fontFamily=Times New Roman;fontSize=14;fontColor=#0000FF;strokeColor=#000000;" parent="1" source="102" edge="1">
                    <mxGeometry relative="1" as="geometry">
                        <mxPoint x="1280" y="100" as="targetPoint"/>
                        <Array as="points">
                            <mxPoint x="1045" y="100"/>
                        </Array>
                    </mxGeometry>
                </mxCell>
                <mxCell id="102" value="" style="outlineConnect=0;dashed=0;verticalLabelPosition=bottom;verticalAlign=top;align=center;html=1;shape=mxgraph.aws3.sns;fillColor=#D9A741;gradientColor=none;glass=1;labelBackgroundColor=default;fontFamily=Times New Roman;fontSize=14;fontColor=#000000;strokeColor=#000000;strokeWidth=2;" parent="1" vertex="1">
                    <mxGeometry x="1006.75" y="320" width="76.5" height="76.5" as="geometry"/>
                </mxCell>
                <mxCell id="104" value="&lt;font style=&quot;font-size: 14px ; font-weight: normal&quot;&gt;&lt;font face=&quot;Times New Roman&quot;&gt;SNS&lt;/font&gt;&lt;br&gt;&lt;/font&gt;" style="text;strokeColor=none;fillColor=none;html=1;fontSize=24;fontStyle=1;verticalAlign=middle;align=center;labelBackgroundColor=#FFFFFF;fontFamily=Helvetica;fontColor=#000000;strokeWidth=0;" parent="1" vertex="1">
                    <mxGeometry x="995.5" y="382.5" width="90" height="34.5" as="geometry"/>
                </mxCell>
                <mxCell id="114" value="" style="verticalLabelPosition=bottom;shadow=0;dashed=0;align=center;html=1;verticalAlign=top;strokeWidth=1;shape=mxgraph.mockup.misc.mail2;strokeColor=#999999;glass=1;labelBackgroundColor=default;fontFamily=Times New Roman;fontSize=14;fontColor=#000000;fillColor=none;" parent="1" vertex="1">
                    <mxGeometry x="1110" y="100" width="30" height="25" as="geometry"/>
                </mxCell>
                <mxCell id="115" value="Email message delivery" style="text;html=1;strokeColor=none;fillColor=none;align=center;verticalAlign=middle;whiteSpace=wrap;rounded=0;labelBackgroundColor=none;fontFamily=Times New Roman;fontSize=14;fontColor=#000000;" parent="1" vertex="1">
                    <mxGeometry x="1020" y="130" width="100" height="30" as="geometry"/>
                </mxCell>
                <mxCell id="188" value="" style="edgeStyle=none;html=1;strokeColor=#000000;" parent="1" source="181" edge="1">
                    <mxGeometry relative="1" as="geometry">
                        <mxPoint x="810" y="965.25" as="targetPoint"/>
                    </mxGeometry>
                </mxCell>
                <mxCell id="190" value="" style="edgeStyle=none;html=1;strokeColor=#000000;" parent="1" source="181" target="178" edge="1">
                    <mxGeometry relative="1" as="geometry"/>
                </mxCell>
                <mxCell id="181" value="" style="shape=actor;whiteSpace=wrap;html=1;glass=1;labelBackgroundColor=default;fontFamily=Times New Roman;fontSize=14;strokeWidth=2;fillColor=none;strokeColor=#000000;" parent="1" vertex="1">
                    <mxGeometry x="1025" y="936.25" width="40" height="60" as="geometry"/>
                </mxCell>
                <mxCell id="183" value="" style="outlineConnect=0;dashed=0;verticalLabelPosition=bottom;verticalAlign=top;align=center;html=1;shape=mxgraph.aws3.cli;fillColor=#444444;gradientColor=none;" parent="1" vertex="1">
                    <mxGeometry x="730" y="935.25" width="72" height="82.5" as="geometry"/>
                </mxCell>
                <mxCell id="186" value="&lt;font style=&quot;font-size: 14px ; font-weight: normal&quot;&gt;&lt;font face=&quot;Times New Roman&quot;&gt;AWS CLI&lt;/font&gt;&lt;br&gt;&lt;/font&gt;" style="text;strokeColor=none;fillColor=none;html=1;fontSize=24;fontStyle=1;verticalAlign=middle;align=center;labelBackgroundColor=#FFFFFF;fontFamily=Helvetica;fontColor=#000000;strokeWidth=0;" parent="1" vertex="1">
                    <mxGeometry x="721" y="1015.75" width="90" height="34.5" as="geometry"/>
                </mxCell>
                <mxCell id="191" value="&lt;font color=&quot;#0000ff&quot; style=&quot;font-size: 14px;&quot;&gt;&lt;span style=&quot;font-size: 14px;&quot;&gt;Manual Workaround&lt;/span&gt;&lt;/font&gt;" style="text;html=1;strokeColor=none;fillColor=none;align=center;verticalAlign=middle;whiteSpace=wrap;rounded=0;fontStyle=1;fontSize=14;" parent="1" vertex="1">
                    <mxGeometry x="650" y="860" width="163.25" height="30" as="geometry"/>
                </mxCell>
                <mxCell id="192" value="" style="edgeStyle=none;html=1;fontColor=#0000FF;strokeColor=#000000;" parent="1" source="178" target="59" edge="1">
                    <mxGeometry relative="1" as="geometry"/>
                </mxCell>
                <mxCell id="193" value="&lt;font style=&quot;font-size: 14px ; font-weight: normal&quot;&gt;&lt;font face=&quot;Times New Roman&quot;&gt;Run commands&lt;/font&gt;&lt;br&gt;&lt;/font&gt;" style="text;strokeColor=none;fillColor=none;html=1;fontSize=24;fontStyle=1;verticalAlign=middle;align=center;labelBackgroundColor=#FFFFFF;fontFamily=Helvetica;fontColor=#000000;strokeWidth=0;" parent="1" vertex="1">
                    <mxGeometry x="870" y="924" width="90" height="34.5" as="geometry"/>
                </mxCell>
                <mxCell id="194" value="&lt;font style=&quot;font-size: 14px ; font-weight: normal&quot;&gt;&lt;font face=&quot;Times New Roman&quot;&gt;Publish to Queue&lt;/font&gt;&lt;br&gt;&lt;/font&gt;" style="text;strokeColor=none;fillColor=none;html=1;fontSize=24;fontStyle=1;verticalAlign=middle;align=center;labelBackgroundColor=none;fontFamily=Helvetica;fontColor=#000000;strokeWidth=0;" parent="1" vertex="1">
                    <mxGeometry x="1060" y="855.5" width="90" height="34.5" as="geometry"/>
                </mxCell>
                <mxCell id="198" value="&lt;font style=&quot;font-size: 14px ; font-weight: normal&quot;&gt;&lt;font face=&quot;Times New Roman&quot;&gt;Developer&lt;/font&gt;&lt;br&gt;&lt;/font&gt;" style="text;strokeColor=none;fillColor=none;html=1;fontSize=24;fontStyle=1;verticalAlign=middle;align=center;labelBackgroundColor=#FFFFFF;fontFamily=Helvetica;fontColor=#000000;strokeWidth=0;" parent="1" vertex="1">
                    <mxGeometry x="1000" y="996.25" width="90" height="34.5" as="geometry"/>
                </mxCell>
            </root>
        </mxGraphModel>
    </diagram>
</mxfile>